<svg width="183" height="51" viewBox="0 0 183 51" fill="none" xmlns="http://www.w3.org/2000/svg">
<rect x="0.5" y="0.5" width="182" height="50" rx="3.5" fill="#01996D"/>
<path d="M59.2342 20.91C59.1742 21.01 59.1076 21.0867 59.0342 21.14C58.9676 21.1867 58.8842 21.21 58.7842 21.21C58.6709 21.21 58.5376 21.1533 58.3842 21.04C58.2309 20.9267 58.0376 20.8033 57.8042 20.67C57.5776 20.53 57.3009 20.4033 56.9742 20.29C56.6542 20.1767 56.2642 20.12 55.8042 20.12C55.3709 20.12 54.9876 20.18 54.6542 20.3C54.3276 20.4133 54.0509 20.57 53.8242 20.77C53.6042 20.97 53.4376 21.2067 53.3242 21.48C53.2109 21.7467 53.1542 22.0367 53.1542 22.35C53.1542 22.75 53.2509 23.0833 53.4442 23.35C53.6442 23.61 53.9042 23.8333 54.2242 24.02C54.5509 24.2067 54.9176 24.37 55.3242 24.51C55.7376 24.6433 56.1576 24.7833 56.5842 24.93C57.0176 25.0767 57.4376 25.2433 57.8442 25.43C58.2576 25.61 58.6242 25.84 58.9442 26.12C59.2709 26.4 59.5309 26.7433 59.7242 27.15C59.9242 27.5567 60.0242 28.0567 60.0242 28.65C60.0242 29.2767 59.9176 29.8667 59.7042 30.42C59.4909 30.9667 59.1776 31.4433 58.7642 31.85C58.3576 32.2567 57.8542 32.5767 57.2542 32.81C56.6609 33.0433 55.9842 33.16 55.2242 33.16C54.2909 33.16 53.4442 32.9933 52.6842 32.66C51.9242 32.32 51.2742 31.8633 50.7342 31.29L51.2942 30.37C51.3476 30.2967 51.4109 30.2367 51.4842 30.19C51.5642 30.1367 51.6509 30.11 51.7442 30.11C51.8309 30.11 51.9276 30.1467 52.0342 30.22C52.1476 30.2867 52.2742 30.3733 52.4142 30.48C52.5542 30.5867 52.7142 30.7033 52.8942 30.83C53.0742 30.9567 53.2776 31.0733 53.5042 31.18C53.7376 31.2867 54.0009 31.3767 54.2942 31.45C54.5876 31.5167 54.9176 31.55 55.2842 31.55C55.7442 31.55 56.1542 31.4867 56.5142 31.36C56.8742 31.2333 57.1776 31.0567 57.4242 30.83C57.6776 30.5967 57.8709 30.32 58.0042 30C58.1376 29.68 58.2042 29.3233 58.2042 28.93C58.2042 28.4967 58.1042 28.1433 57.9042 27.87C57.7109 27.59 57.4542 27.3567 57.1342 27.17C56.8142 26.9833 56.4476 26.8267 56.0342 26.7C55.6209 26.5667 55.2009 26.4333 54.7742 26.3C54.3476 26.16 53.9276 26 53.5142 25.82C53.1009 25.64 52.7342 25.4067 52.4142 25.12C52.0942 24.8333 51.8342 24.4767 51.6342 24.05C51.4409 23.6167 51.3442 23.0833 51.3442 22.45C51.3442 21.9433 51.4409 21.4533 51.6342 20.98C51.8342 20.5067 52.1209 20.0867 52.4942 19.72C52.8742 19.3533 53.3376 19.06 53.8842 18.84C54.4376 18.62 55.0709 18.51 55.7842 18.51C56.5842 18.51 57.3109 18.6367 57.9642 18.89C58.6242 19.1433 59.2042 19.51 59.7042 19.99L59.2342 20.91ZM65.0044 33.16C64.2044 33.16 63.5877 32.9367 63.1544 32.49C62.7277 32.0433 62.5144 31.4 62.5144 30.56V24.36H61.2944C61.1877 24.36 61.0977 24.33 61.0244 24.27C60.951 24.2033 60.9144 24.1033 60.9144 23.97V23.26L62.5744 23.05L62.9844 19.92C63.0044 19.82 63.0477 19.74 63.1144 19.68C63.1877 19.6133 63.281 19.58 63.3944 19.58H64.2944V23.07H67.2244V24.36H64.2944V30.44C64.2944 30.8667 64.3977 31.1833 64.6044 31.39C64.811 31.5967 65.0777 31.7 65.4044 31.7C65.591 31.7 65.751 31.6767 65.8844 31.63C66.0244 31.5767 66.1444 31.52 66.2444 31.46C66.3444 31.4 66.4277 31.3467 66.4944 31.3C66.5677 31.2467 66.631 31.22 66.6844 31.22C66.7777 31.22 66.861 31.2767 66.9344 31.39L67.4544 32.24C67.1477 32.5267 66.7777 32.7533 66.3444 32.92C65.911 33.08 65.4644 33.16 65.0044 33.16ZM74.5523 28.44C73.7323 28.4667 73.0323 28.5333 72.4523 28.64C71.879 28.74 71.409 28.8733 71.0423 29.04C70.6823 29.2067 70.419 29.4033 70.2523 29.63C70.0923 29.8567 70.0123 30.11 70.0123 30.39C70.0123 30.6567 70.0557 30.8867 70.1423 31.08C70.229 31.2733 70.3457 31.4333 70.4923 31.56C70.6457 31.68 70.8223 31.77 71.0223 31.83C71.229 31.8833 71.449 31.91 71.6823 31.91C71.9957 31.91 72.2823 31.88 72.5423 31.82C72.8023 31.7533 73.0457 31.66 73.2723 31.54C73.5057 31.42 73.7257 31.2767 73.9323 31.11C74.1457 30.9433 74.3523 30.7533 74.5523 30.54V28.44ZM68.8023 24.3C69.3623 23.76 69.9657 23.3567 70.6123 23.09C71.259 22.8233 71.9757 22.69 72.7623 22.69C73.329 22.69 73.8323 22.7833 74.2723 22.97C74.7123 23.1567 75.0823 23.4167 75.3823 23.75C75.6823 24.0833 75.909 24.4867 76.0623 24.96C76.2157 25.4333 76.2923 25.9533 76.2923 26.52V33H75.5023C75.329 33 75.1957 32.9733 75.1023 32.92C75.009 32.86 74.9357 32.7467 74.8823 32.58L74.6823 31.62C74.4157 31.8667 74.1557 32.0867 73.9023 32.28C73.649 32.4667 73.3823 32.6267 73.1023 32.76C72.8223 32.8867 72.5223 32.9833 72.2023 33.05C71.889 33.1233 71.539 33.16 71.1523 33.16C70.759 33.16 70.389 33.1067 70.0423 33C69.6957 32.8867 69.3923 32.72 69.1323 32.5C68.879 32.28 68.6757 32.0033 68.5223 31.67C68.3757 31.33 68.3023 30.93 68.3023 30.47C68.3023 30.07 68.4123 29.6867 68.6323 29.32C68.8523 28.9467 69.209 28.6167 69.7023 28.33C70.1957 28.0433 70.839 27.81 71.6323 27.63C72.4257 27.4433 73.399 27.3367 74.5523 27.31V26.52C74.5523 25.7333 74.3823 25.14 74.0423 24.74C73.7023 24.3333 73.2057 24.13 72.5523 24.13C72.1123 24.13 71.7423 24.1867 71.4423 24.3C71.149 24.4067 70.8923 24.53 70.6723 24.67C70.459 24.8033 70.2723 24.9267 70.1123 25.04C69.959 25.1467 69.8057 25.2 69.6523 25.2C69.5323 25.2 69.429 25.17 69.3423 25.11C69.2557 25.0433 69.1823 24.9633 69.1223 24.87L68.8023 24.3ZM80.6938 24.9C81.0138 24.2067 81.4071 23.6667 81.8738 23.28C82.3404 22.8867 82.9104 22.69 83.5838 22.69C83.7971 22.69 84.0004 22.7133 84.1938 22.76C84.3938 22.8067 84.5704 22.88 84.7238 22.98L84.5938 24.31C84.5538 24.4767 84.4538 24.56 84.2938 24.56C84.2004 24.56 84.0638 24.54 83.8838 24.5C83.7038 24.46 83.5004 24.44 83.2738 24.44C82.9538 24.44 82.6671 24.4867 82.4138 24.58C82.1671 24.6733 81.9438 24.8133 81.7438 25C81.5504 25.18 81.3738 25.4067 81.2138 25.68C81.0604 25.9467 80.9204 26.2533 80.7938 26.6V33H79.0038V22.87H80.0238C80.2171 22.87 80.3504 22.9067 80.4238 22.98C80.4971 23.0533 80.5471 23.18 80.5738 23.36L80.6938 24.9ZM89.3989 33.16C88.5989 33.16 87.9822 32.9367 87.5489 32.49C87.1222 32.0433 86.9089 31.4 86.9089 30.56V24.36H85.6889C85.5822 24.36 85.4922 24.33 85.4189 24.27C85.3456 24.2033 85.3089 24.1033 85.3089 23.97V23.26L86.9689 23.05L87.3789 19.92C87.3989 19.82 87.4422 19.74 87.5089 19.68C87.5822 19.6133 87.6756 19.58 87.7889 19.58H88.6889V23.07H91.6189V24.36H88.6889V30.44C88.6889 30.8667 88.7922 31.1833 88.9989 31.39C89.2056 31.5967 89.4722 31.7 89.7989 31.7C89.9856 31.7 90.1456 31.6767 90.2789 31.63C90.4189 31.5767 90.5389 31.52 90.6389 31.46C90.7389 31.4 90.8222 31.3467 90.8889 31.3C90.9622 31.2467 91.0256 31.22 91.0789 31.22C91.1722 31.22 91.2556 31.2767 91.3289 31.39L91.8489 32.24C91.5422 32.5267 91.1722 32.7533 90.7389 32.92C90.3056 33.08 89.8589 33.16 89.3989 33.16ZM108.079 20.3H103.439V33H101.509V20.3H96.8586V18.67H108.079V20.3ZM109.268 24.9C109.588 24.2067 109.981 23.6667 110.448 23.28C110.915 22.8867 111.485 22.69 112.158 22.69C112.371 22.69 112.575 22.7133 112.768 22.76C112.968 22.8067 113.145 22.88 113.298 22.98L113.168 24.31C113.128 24.4767 113.028 24.56 112.868 24.56C112.775 24.56 112.638 24.54 112.458 24.5C112.278 24.46 112.075 24.44 111.848 24.44C111.528 24.44 111.241 24.4867 110.988 24.58C110.741 24.6733 110.518 24.8133 110.318 25C110.125 25.18 109.948 25.4067 109.788 25.68C109.635 25.9467 109.495 26.2533 109.368 26.6V33H107.578V22.87H108.598C108.791 22.87 108.925 22.9067 108.998 22.98C109.071 23.0533 109.121 23.18 109.148 23.36L109.268 24.9ZM116.743 22.87V33H114.963V22.87H116.743ZM117.123 19.69C117.123 19.8633 117.086 20.0267 117.013 20.18C116.946 20.3267 116.853 20.46 116.733 20.58C116.62 20.6933 116.483 20.7833 116.323 20.85C116.17 20.9167 116.006 20.95 115.833 20.95C115.66 20.95 115.496 20.9167 115.343 20.85C115.196 20.7833 115.066 20.6933 114.953 20.58C114.84 20.46 114.75 20.3267 114.683 20.18C114.616 20.0267 114.583 19.8633 114.583 19.69C114.583 19.5167 114.616 19.3533 114.683 19.2C114.75 19.04 114.84 18.9033 114.953 18.79C115.066 18.67 115.196 18.5767 115.343 18.51C115.496 18.4433 115.66 18.41 115.833 18.41C116.006 18.41 116.17 18.4433 116.323 18.51C116.483 18.5767 116.62 18.67 116.733 18.79C116.853 18.9033 116.946 19.04 117.013 19.2C117.086 19.3533 117.123 19.5167 117.123 19.69ZM125.158 28.44C124.338 28.4667 123.638 28.5333 123.058 28.64C122.484 28.74 122.014 28.8733 121.648 29.04C121.288 29.2067 121.024 29.4033 120.858 29.63C120.698 29.8567 120.618 30.11 120.618 30.39C120.618 30.6567 120.661 30.8867 120.748 31.08C120.834 31.2733 120.951 31.4333 121.098 31.56C121.251 31.68 121.428 31.77 121.628 31.83C121.834 31.8833 122.054 31.91 122.288 31.91C122.601 31.91 122.888 31.88 123.148 31.82C123.408 31.7533 123.651 31.66 123.878 31.54C124.111 31.42 124.331 31.2767 124.538 31.11C124.751 30.9433 124.958 30.7533 125.158 30.54V28.44ZM119.408 24.3C119.968 23.76 120.571 23.3567 121.218 23.09C121.864 22.8233 122.581 22.69 123.368 22.69C123.934 22.69 124.438 22.7833 124.878 22.97C125.318 23.1567 125.688 23.4167 125.988 23.75C126.288 24.0833 126.514 24.4867 126.668 24.96C126.821 25.4333 126.898 25.9533 126.898 26.52V33H126.108C125.934 33 125.801 32.9733 125.708 32.92C125.614 32.86 125.541 32.7467 125.488 32.58L125.288 31.62C125.021 31.8667 124.761 32.0867 124.508 32.28C124.254 32.4667 123.988 32.6267 123.708 32.76C123.428 32.8867 123.128 32.9833 122.808 33.05C122.494 33.1233 122.144 33.16 121.758 33.16C121.364 33.16 120.994 33.1067 120.648 33C120.301 32.8867 119.998 32.72 119.738 32.5C119.484 32.28 119.281 32.0033 119.128 31.67C118.981 31.33 118.908 30.93 118.908 30.47C118.908 30.07 119.018 29.6867 119.238 29.32C119.458 28.9467 119.814 28.6167 120.308 28.33C120.801 28.0433 121.444 27.81 122.238 27.63C123.031 27.4433 124.004 27.3367 125.158 27.31V26.52C125.158 25.7333 124.988 25.14 124.648 24.74C124.308 24.3333 123.811 24.13 123.158 24.13C122.718 24.13 122.348 24.1867 122.048 24.3C121.754 24.4067 121.498 24.53 121.278 24.67C121.064 24.8033 120.878 24.9267 120.718 25.04C120.564 25.1467 120.411 25.2 120.258 25.2C120.138 25.2 120.034 25.17 119.948 25.11C119.861 25.0433 119.788 24.9633 119.728 24.87L119.408 24.3ZM131.449 18.27V33H129.669V18.27H131.449Z" fill="white"/>
<rect x="0.5" y="0.5" width="182" height="50" rx="3.5" stroke="#01996D"/>
</svg>
