<svg width="128" height="24" viewBox="0 0 128 24" fill="none" xmlns="http://www.w3.org/2000/svg">
<path d="M13.6375 14.9875C13.7958 14.9875 13.9333 15.05 14.05 15.175L15.2125 16.4375C14.4792 17.3208 13.5792 18.0042 12.5125 18.4875C11.4458 18.9625 10.1708 19.2 8.6875 19.2C7.37083 19.2 6.17917 18.975 5.1125 18.525C4.05417 18.0667 3.15 17.4333 2.4 16.625C1.65 15.8083 1.07083 14.8375 0.6625 13.7125C0.2625 12.5875 0.0625 11.35 0.0625 10C0.0625 8.65 0.275 7.4125 0.7 6.2875C1.13333 5.15417 1.7375 4.18333 2.5125 3.375C3.29583 2.55833 4.22917 1.925 5.3125 1.475C6.40417 1.025 7.60417 0.799999 8.9125 0.799999C10.2125 0.799999 11.3583 1.0125 12.35 1.4375C13.35 1.85417 14.2167 2.4125 14.95 3.1125L13.9875 4.475C13.9208 4.56667 13.8417 4.64583 13.75 4.7125C13.6583 4.77917 13.5333 4.8125 13.375 4.8125C13.2083 4.8125 13.0167 4.7375 12.8 4.5875C12.5917 4.42917 12.3208 4.25833 11.9875 4.075C11.6625 3.88333 11.25 3.7125 10.75 3.5625C10.2583 3.40417 9.64167 3.325 8.9 3.325C8.04167 3.325 7.25417 3.475 6.5375 3.775C5.82083 4.075 5.20417 4.5125 4.6875 5.0875C4.17083 5.6625 3.76667 6.3625 3.475 7.1875C3.19167 8.0125 3.05 8.95 3.05 10C3.05 11.0583 3.2 12.0042 3.5 12.8375C3.8 13.6625 4.2125 14.3625 4.7375 14.9375C5.2625 15.5042 5.87917 15.9375 6.5875 16.2375C7.29583 16.5375 8.05833 16.6875 8.875 16.6875C9.375 16.6875 9.82083 16.6625 10.2125 16.6125C10.6125 16.5542 10.9792 16.4667 11.3125 16.35C11.6458 16.225 11.9583 16.0708 12.25 15.8875C12.55 15.7042 12.8458 15.4792 13.1375 15.2125C13.3042 15.0625 13.4708 14.9875 13.6375 14.9875ZM22.483 6.05C23.4247 6.05 24.2747 6.20417 25.033 6.5125C25.7997 6.82083 26.4497 7.25833 26.983 7.825C27.5247 8.39167 27.9413 9.07917 28.233 9.8875C28.5247 10.6958 28.6705 11.6042 28.6705 12.6125C28.6705 13.6208 28.5247 14.5292 28.233 15.3375C27.9413 16.1458 27.5247 16.8375 26.983 17.4125C26.4497 17.9792 25.7997 18.4167 25.033 18.725C24.2747 19.0333 23.4247 19.1875 22.483 19.1875C21.533 19.1875 20.6747 19.0333 19.908 18.725C19.1497 18.4167 18.4997 17.9792 17.958 17.4125C17.4163 16.8375 16.9997 16.1458 16.708 15.3375C16.4163 14.5292 16.2705 13.6208 16.2705 12.6125C16.2705 11.6042 16.4163 10.6958 16.708 9.8875C16.9997 9.07917 17.4163 8.39167 17.958 7.825C18.4997 7.25833 19.1497 6.82083 19.908 6.5125C20.6747 6.20417 21.533 6.05 22.483 6.05ZM22.483 17.0875C23.633 17.0875 24.4872 16.7042 25.0455 15.9375C25.6122 15.1625 25.8955 14.0583 25.8955 12.625C25.8955 11.1917 25.6122 10.0875 25.0455 9.3125C24.4872 8.52917 23.633 8.1375 22.483 8.1375C21.3163 8.1375 20.4497 8.52917 19.883 9.3125C19.3163 10.0875 19.033 11.1917 19.033 12.625C19.033 14.0583 19.3163 15.1625 19.883 15.9375C20.4497 16.7042 21.3163 17.0875 22.483 17.0875ZM31.2527 19V6.25H32.8777C33.2444 6.25 33.4777 6.42083 33.5777 6.7625L33.7527 7.875C33.9861 7.60833 34.2277 7.36667 34.4777 7.15C34.7277 6.925 34.9944 6.73333 35.2777 6.575C35.5694 6.40833 35.8777 6.27917 36.2027 6.1875C36.5361 6.09583 36.8944 6.05 37.2777 6.05C37.6861 6.05 38.0611 6.10833 38.4027 6.225C38.7444 6.34167 39.0444 6.50833 39.3027 6.725C39.5694 6.94167 39.7986 7.20417 39.9902 7.5125C40.1819 7.82083 40.3402 8.16667 40.4652 8.55C40.6569 8.10833 40.8986 7.72917 41.1902 7.4125C41.4819 7.09583 41.8069 6.8375 42.1652 6.6375C42.5236 6.4375 42.9027 6.29167 43.3027 6.2C43.7111 6.1 44.1236 6.05 44.5402 6.05C45.2236 6.05 45.8319 6.15833 46.3652 6.375C46.9069 6.59167 47.3611 6.90833 47.7277 7.325C48.1027 7.73333 48.3861 8.2375 48.5777 8.8375C48.7694 9.4375 48.8652 10.1208 48.8652 10.8875V19H46.1777V10.8875C46.1777 9.9875 45.9819 9.3125 45.5902 8.8625C45.2069 8.40417 44.6361 8.175 43.8777 8.175C43.5361 8.175 43.2152 8.23333 42.9152 8.35C42.6152 8.46667 42.3527 8.6375 42.1277 8.8625C41.9027 9.0875 41.7236 9.37083 41.5902 9.7125C41.4652 10.0458 41.4027 10.4375 41.4027 10.8875V19H38.7152V10.8875C38.7152 9.95417 38.5277 9.27083 38.1527 8.8375C37.7777 8.39583 37.2277 8.175 36.5027 8.175C36.0027 8.175 35.5402 8.30417 35.1152 8.5625C34.6902 8.8125 34.2986 9.15833 33.9402 9.6V19H31.2527ZM52.0047 19V6.25H53.6297C53.9964 6.25 54.2297 6.42083 54.3297 6.7625L54.5047 7.875C54.738 7.60833 54.9797 7.36667 55.2297 7.15C55.4797 6.925 55.7464 6.73333 56.0297 6.575C56.3214 6.40833 56.6297 6.27917 56.9547 6.1875C57.288 6.09583 57.6464 6.05 58.0297 6.05C58.438 6.05 58.813 6.10833 59.1547 6.225C59.4964 6.34167 59.7964 6.50833 60.0547 6.725C60.3214 6.94167 60.5505 7.20417 60.7422 7.5125C60.9339 7.82083 61.0922 8.16667 61.2172 8.55C61.4089 8.10833 61.6505 7.72917 61.9422 7.4125C62.2339 7.09583 62.5589 6.8375 62.9172 6.6375C63.2755 6.4375 63.6547 6.29167 64.0547 6.2C64.463 6.1 64.8755 6.05 65.2922 6.05C65.9755 6.05 66.5839 6.15833 67.1172 6.375C67.6589 6.59167 68.113 6.90833 68.4797 7.325C68.8547 7.73333 69.138 8.2375 69.3297 8.8375C69.5214 9.4375 69.6172 10.1208 69.6172 10.8875V19H66.9297V10.8875C66.9297 9.9875 66.7339 9.3125 66.3422 8.8625C65.9589 8.40417 65.388 8.175 64.6297 8.175C64.288 8.175 63.9672 8.23333 63.6672 8.35C63.3672 8.46667 63.1047 8.6375 62.8797 8.8625C62.6547 9.0875 62.4755 9.37083 62.3422 9.7125C62.2172 10.0458 62.1547 10.4375 62.1547 10.8875V19H59.4672V10.8875C59.4672 9.95417 59.2797 9.27083 58.9047 8.8375C58.5297 8.39583 57.9797 8.175 57.2547 8.175C56.7547 8.175 56.2922 8.30417 55.8672 8.5625C55.4422 8.8125 55.0505 9.15833 54.6922 9.6V19H52.0047ZM83.5066 6.25V19H81.8816C81.5233 19 81.2941 18.8292 81.1941 18.4875L80.9941 17.3C80.7275 17.5833 80.4441 17.8417 80.1441 18.075C79.8525 18.3083 79.54 18.5083 79.2066 18.675C78.8733 18.8417 78.515 18.9708 78.1316 19.0625C77.7566 19.1542 77.3525 19.2 76.9191 19.2C76.2191 19.2 75.6025 19.0833 75.0691 18.85C74.5358 18.6167 74.0858 18.2875 73.7191 17.8625C73.3608 17.4375 73.09 16.9292 72.9066 16.3375C72.7233 15.7375 72.6316 15.0792 72.6316 14.3625V6.25H75.3191V14.3625C75.3191 15.2208 75.515 15.8875 75.9066 16.3625C76.3066 16.8375 76.9108 17.075 77.7191 17.075C78.3108 17.075 78.8608 16.9417 79.3691 16.675C79.8858 16.4 80.3691 16.025 80.8191 15.55V6.25H83.5066ZM89.2828 7.9375C89.5578 7.65417 89.8411 7.4 90.1328 7.175C90.4328 6.94167 90.7495 6.74167 91.0828 6.575C91.4161 6.40833 91.7703 6.27917 92.1453 6.1875C92.5203 6.09583 92.9286 6.05 93.3703 6.05C94.0703 6.05 94.6828 6.16667 95.2078 6.4C95.7411 6.63333 96.187 6.9625 96.5453 7.3875C96.912 7.8125 97.187 8.325 97.3703 8.925C97.5536 9.51667 97.6453 10.1708 97.6453 10.8875V19H94.9703V10.8875C94.9703 10.0292 94.7703 9.3625 94.3703 8.8875C93.9786 8.4125 93.3786 8.175 92.5703 8.175C91.9703 8.175 91.412 8.3125 90.8953 8.5875C90.387 8.8625 89.9078 9.2375 89.4578 9.7125V19H86.7703V6.25H88.3953C88.762 6.25 88.9953 6.42083 89.0953 6.7625L89.2828 7.9375ZM103.584 6.25V19H100.896V6.25H103.584ZM104.034 2.4C104.034 2.64167 103.984 2.87083 103.884 3.0875C103.792 3.30417 103.663 3.49583 103.496 3.6625C103.33 3.82083 103.134 3.95 102.909 4.05C102.692 4.14167 102.459 4.1875 102.209 4.1875C101.967 4.1875 101.738 4.14167 101.521 4.05C101.313 3.95 101.13 3.82083 100.971 3.6625C100.813 3.49583 100.684 3.30417 100.584 3.0875C100.492 2.87083 100.446 2.64167 100.446 2.4C100.446 2.15 100.492 1.91667 100.584 1.7C100.684 1.48333 100.813 1.29583 100.971 1.1375C101.13 0.970832 101.313 0.841666 101.521 0.75C101.738 0.649999 101.967 0.599998 102.209 0.599998C102.459 0.599998 102.692 0.649999 102.909 0.75C103.134 0.841666 103.33 0.970832 103.496 1.1375C103.663 1.29583 103.792 1.48333 103.884 1.7C103.984 1.91667 104.034 2.15 104.034 2.4ZM111.048 19.2C109.99 19.2 109.173 18.9042 108.598 18.3125C108.032 17.7125 107.748 16.8708 107.748 15.7875V8.3625H106.348C106.198 8.3625 106.069 8.31667 105.961 8.225C105.852 8.125 105.798 7.97917 105.798 7.7875V6.7L107.861 6.4L108.448 2.7125C108.49 2.57083 108.561 2.45833 108.661 2.375C108.761 2.28333 108.894 2.2375 109.061 2.2375H110.436V6.425H113.973V8.3625H110.436V15.6C110.436 16.0583 110.548 16.4083 110.773 16.65C110.998 16.8917 111.298 17.0125 111.673 17.0125C111.882 17.0125 112.061 16.9875 112.211 16.9375C112.361 16.8792 112.49 16.8208 112.598 16.7625C112.707 16.6958 112.798 16.6375 112.873 16.5875C112.957 16.5292 113.036 16.5 113.111 16.5C113.261 16.5 113.382 16.5833 113.473 16.75L114.273 18.0625C113.857 18.4292 113.365 18.7125 112.798 18.9125C112.232 19.1042 111.648 19.2 111.048 19.2ZM127.404 6.25L120.379 22.625C120.287 22.8167 120.175 22.9667 120.042 23.075C119.917 23.1833 119.721 23.2375 119.454 23.2375H117.467L119.817 18.1375L114.617 6.25H116.954C117.179 6.25 117.35 6.30417 117.467 6.4125C117.592 6.5125 117.683 6.63333 117.742 6.775L120.779 14.0125C120.854 14.2208 120.921 14.4292 120.979 14.6375C121.046 14.8375 121.108 15.0458 121.167 15.2625C121.233 15.0458 121.3 14.8333 121.367 14.625C121.433 14.4167 121.508 14.2083 121.592 14L124.504 6.775C124.562 6.625 124.658 6.5 124.792 6.4C124.933 6.3 125.087 6.25 125.254 6.25H127.404Z" fill="white"/>
</svg>
