<svg width="74" height="24" viewBox="0 0 74 24" fill="none" xmlns="http://www.w3.org/2000/svg">
<path d="M5.7375 10.175C6.3875 10.175 6.95833 10.0917 7.45 9.925C7.95 9.75833 8.3625 9.525 8.6875 9.225C9.02083 8.91667 9.27083 8.54583 9.4375 8.1125C9.60417 7.67917 9.6875 7.19583 9.6875 6.6625C9.6875 6.1375 9.60417 5.66667 9.4375 5.25C9.27917 4.83333 9.0375 4.47917 8.7125 4.1875C8.3875 3.89583 7.975 3.675 7.475 3.525C6.98333 3.36667 6.40417 3.2875 5.7375 3.2875H3.0625V10.175H5.7375ZM5.7375 0.999999C6.9125 0.999999 7.92917 1.1375 8.7875 1.4125C9.65417 1.6875 10.3667 2.075 10.925 2.575C11.4917 3.06667 11.9125 3.6625 12.1875 4.3625C12.4625 5.05417 12.6 5.82083 12.6 6.6625C12.6 7.52083 12.4542 8.30833 12.1625 9.025C11.8708 9.73333 11.4375 10.3458 10.8625 10.8625C10.2875 11.3708 9.57083 11.7708 8.7125 12.0625C7.8625 12.3458 6.87083 12.4875 5.7375 12.4875H3.0625V19H0.1375V0.999999H5.7375ZM17.2141 8.6125C17.6141 7.80417 18.0974 7.17083 18.6641 6.7125C19.2307 6.24583 19.9099 6.0125 20.7016 6.0125C20.9766 6.0125 21.2349 6.04583 21.4766 6.1125C21.7182 6.17083 21.9349 6.2625 22.1266 6.3875L21.9391 8.4125C21.9057 8.55417 21.8516 8.65417 21.7766 8.7125C21.7099 8.7625 21.6182 8.7875 21.5016 8.7875C21.3766 8.7875 21.1974 8.76667 20.9641 8.725C20.7307 8.675 20.4849 8.65 20.2266 8.65C19.8516 8.65 19.5182 8.70417 19.2266 8.8125C18.9432 8.92083 18.6849 9.07917 18.4516 9.2875C18.2266 9.49583 18.0266 9.75 17.8516 10.05C17.6766 10.35 17.5141 10.6917 17.3641 11.075V19H14.6766V6.25H16.2391C16.5224 6.25 16.7182 6.30417 16.8266 6.4125C16.9349 6.5125 17.0099 6.69167 17.0516 6.95L17.2141 8.6125ZM26.7051 6.25V19H24.0176V6.25H26.7051ZM27.1551 2.4C27.1551 2.64167 27.1051 2.87083 27.0051 3.0875C26.9134 3.30417 26.7842 3.49583 26.6176 3.6625C26.4509 3.82083 26.2551 3.95 26.0301 4.05C25.8134 4.14167 25.5801 4.1875 25.3301 4.1875C25.0884 4.1875 24.8592 4.14167 24.6426 4.05C24.4342 3.95 24.2509 3.82083 24.0926 3.6625C23.9342 3.49583 23.8051 3.30417 23.7051 3.0875C23.6134 2.87083 23.5676 2.64167 23.5676 2.4C23.5676 2.15 23.6134 1.91667 23.7051 1.7C23.8051 1.48333 23.9342 1.29583 24.0926 1.1375C24.2509 0.970832 24.4342 0.841666 24.6426 0.75C24.8592 0.649999 25.0884 0.599998 25.3301 0.599998C25.5801 0.599998 25.8134 0.649999 26.0301 0.75C26.2551 0.841666 26.4509 0.970832 26.6176 1.1375C26.7842 1.29583 26.9134 1.48333 27.0051 1.7C27.1051 1.91667 27.1551 2.15 27.1551 2.4ZM39.0943 8.75C39.011 8.85833 38.9318 8.94167 38.8568 9C38.7818 9.05833 38.6735 9.0875 38.5318 9.0875C38.3902 9.0875 38.2402 9.0375 38.0818 8.9375C37.9318 8.8375 37.7485 8.72917 37.5318 8.6125C37.3235 8.4875 37.0693 8.375 36.7693 8.275C36.4693 8.175 36.0943 8.125 35.6443 8.125C35.061 8.125 34.5485 8.22917 34.1068 8.4375C33.6735 8.64583 33.3068 8.94583 33.0068 9.3375C32.7152 9.72083 32.4943 10.1917 32.3443 10.75C32.2027 11.3 32.1318 11.9208 32.1318 12.6125C32.1318 13.3292 32.211 13.9667 32.3693 14.525C32.5277 15.0833 32.7527 15.5542 33.0443 15.9375C33.3443 16.3208 33.7027 16.6125 34.1193 16.8125C34.5443 17.0125 35.0193 17.1125 35.5443 17.1125C36.061 17.1125 36.4818 17.05 36.8068 16.925C37.1318 16.8 37.4027 16.6625 37.6193 16.5125C37.836 16.3625 38.0193 16.225 38.1693 16.1C38.3277 15.975 38.4943 15.9125 38.6693 15.9125C38.886 15.9125 39.0527 15.9958 39.1693 16.1625L39.9318 17.15C39.6235 17.525 39.2818 17.8417 38.9068 18.1C38.5318 18.3583 38.136 18.5708 37.7193 18.7375C37.3027 18.8958 36.8693 19.0083 36.4193 19.075C35.9693 19.15 35.5152 19.1875 35.0568 19.1875C34.2652 19.1875 33.5235 19.0417 32.8318 18.75C32.1485 18.45 31.5485 18.0208 31.0318 17.4625C30.5235 16.8958 30.1193 16.2083 29.8193 15.4C29.5277 14.5833 29.3818 13.6542 29.3818 12.6125C29.3818 11.6708 29.5152 10.8 29.7818 10C30.0485 9.19167 30.436 8.49583 30.9443 7.9125C31.461 7.32917 32.0985 6.875 32.8568 6.55C33.6152 6.21667 34.4902 6.05 35.4818 6.05C36.4068 6.05 37.2193 6.2 37.9193 6.5C38.6277 6.8 39.2568 7.225 39.8068 7.775L39.0943 8.75ZM44.8936 6.25V19H42.2061V6.25H44.8936ZM45.3436 2.4C45.3436 2.64167 45.2936 2.87083 45.1936 3.0875C45.1019 3.30417 44.9727 3.49583 44.8061 3.6625C44.6394 3.82083 44.4436 3.95 44.2186 4.05C44.0019 4.14167 43.7686 4.1875 43.5186 4.1875C43.2769 4.1875 43.0477 4.14167 42.8311 4.05C42.6227 3.95 42.4394 3.82083 42.2811 3.6625C42.1227 3.49583 41.9936 3.30417 41.8936 3.0875C41.8019 2.87083 41.7561 2.64167 41.7561 2.4C41.7561 2.15 41.8019 1.91667 41.8936 1.7C41.9936 1.48333 42.1227 1.29583 42.2811 1.1375C42.4394 0.970832 42.6227 0.841666 42.8311 0.75C43.0477 0.649999 43.2769 0.599998 43.5186 0.599998C43.7686 0.599998 44.0019 0.649999 44.2186 0.75C44.4436 0.841666 44.6394 0.970832 44.8061 1.1375C44.9727 1.29583 45.1019 1.48333 45.1936 1.7C45.2936 1.91667 45.3436 2.15 45.3436 2.4ZM50.7828 7.9375C51.0578 7.65417 51.3411 7.4 51.6328 7.175C51.9328 6.94167 52.2495 6.74167 52.5828 6.575C52.9161 6.40833 53.2703 6.27917 53.6453 6.1875C54.0203 6.09583 54.4286 6.05 54.8703 6.05C55.5703 6.05 56.1828 6.16667 56.7078 6.4C57.2411 6.63333 57.687 6.9625 58.0453 7.3875C58.412 7.8125 58.687 8.325 58.8703 8.925C59.0536 9.51667 59.1453 10.1708 59.1453 10.8875V19H56.4703V10.8875C56.4703 10.0292 56.2703 9.3625 55.8703 8.8875C55.4786 8.4125 54.8786 8.175 54.0703 8.175C53.4703 8.175 52.912 8.3125 52.3953 8.5875C51.887 8.8625 51.4078 9.2375 50.9578 9.7125V19H48.2703V6.25H49.8953C50.262 6.25 50.4953 6.42083 50.5953 6.7625L50.7828 7.9375ZM66.834 12.5125C67.6673 12.5125 68.2923 12.3 68.709 11.875C69.1257 11.45 69.334 10.8958 69.334 10.2125C69.334 9.5125 69.1257 8.95833 68.709 8.55C68.2923 8.14167 67.6673 7.9375 66.834 7.9375C66.009 7.9375 65.384 8.14167 64.959 8.55C64.5423 8.95833 64.334 9.5125 64.334 10.2125C64.334 10.5458 64.3882 10.8542 64.4965 11.1375C64.6048 11.4208 64.7632 11.6667 64.9715 11.875C65.1798 12.075 65.4382 12.2333 65.7465 12.35C66.0632 12.4583 66.4257 12.5125 66.834 12.5125ZM70.5715 19.625C70.5715 19.3417 70.4882 19.1167 70.3215 18.95C70.1632 18.775 69.9465 18.6417 69.6715 18.55C69.3965 18.45 69.0757 18.3792 68.709 18.3375C68.3423 18.2875 67.9507 18.2542 67.534 18.2375C67.1257 18.2125 66.7048 18.1917 66.2715 18.175C65.8465 18.15 65.434 18.1083 65.034 18.05C64.634 18.2583 64.3048 18.5083 64.0465 18.8C63.7965 19.0917 63.6715 19.4292 63.6715 19.8125C63.6715 20.0625 63.734 20.2958 63.859 20.5125C63.9923 20.7292 64.1923 20.9167 64.459 21.075C64.734 21.2333 65.0798 21.3583 65.4965 21.45C65.9215 21.5417 66.4298 21.5875 67.0215 21.5875C68.2048 21.5875 69.0923 21.4042 69.684 21.0375C70.2757 20.6708 70.5715 20.2 70.5715 19.625ZM73.2715 6.7125V7.7125C73.2715 8.04583 73.0715 8.25 72.6715 8.325L71.3965 8.5375C71.6132 9.02083 71.7215 9.55833 71.7215 10.15C71.7215 10.775 71.5965 11.3417 71.3465 11.85C71.1048 12.3583 70.7673 12.7917 70.334 13.15C69.9007 13.5083 69.384 13.7833 68.784 13.975C68.184 14.1667 67.534 14.2625 66.834 14.2625C66.5673 14.2625 66.3048 14.25 66.0465 14.225C65.7965 14.1917 65.5507 14.15 65.309 14.1C65.0673 14.2417 64.8882 14.3917 64.7715 14.55C64.6548 14.7083 64.5965 14.8708 64.5965 15.0375C64.5965 15.3125 64.7173 15.5167 64.959 15.65C65.2007 15.7833 65.5173 15.8792 65.909 15.9375C66.309 15.9958 66.7632 16.0333 67.2715 16.05C67.7798 16.0667 68.2965 16.0958 68.8215 16.1375C69.3465 16.1792 69.8632 16.25 70.3715 16.35C70.8798 16.4417 71.3298 16.6 71.7215 16.825C72.1215 17.0417 72.4423 17.3375 72.684 17.7125C72.9257 18.0875 73.0465 18.575 73.0465 19.175C73.0465 19.725 72.909 20.2625 72.634 20.7875C72.359 21.3125 71.959 21.7792 71.434 22.1875C70.9173 22.5958 70.284 22.9208 69.534 23.1625C68.784 23.4125 67.9298 23.5375 66.9715 23.5375C66.0215 23.5375 65.1923 23.4458 64.484 23.2625C63.784 23.0792 63.1965 22.8292 62.7215 22.5125C62.2548 22.2042 61.9048 21.8458 61.6715 21.4375C61.4465 21.0292 61.334 20.6042 61.334 20.1625C61.334 19.5625 61.5215 19.05 61.8965 18.625C62.2798 18.2 62.7965 17.8667 63.4465 17.625C63.0965 17.4583 62.8132 17.2292 62.5965 16.9375C62.3882 16.6458 62.284 16.2625 62.284 15.7875C62.284 15.4125 62.4215 15.0208 62.6965 14.6125C62.9715 14.2042 63.384 13.8583 63.934 13.575C63.3007 13.225 62.8007 12.7625 62.434 12.1875C62.0673 11.6042 61.884 10.925 61.884 10.15C61.884 9.51667 62.0048 8.94583 62.2465 8.4375C62.4965 7.92917 62.8423 7.49583 63.284 7.1375C63.7257 6.77917 64.2465 6.50417 64.8465 6.3125C65.4548 6.12083 66.1173 6.025 66.834 6.025C67.934 6.025 68.8923 6.25417 69.709 6.7125H73.2715Z" fill="white"/>
</svg>
