<svg width="57" height="19" viewBox="0 0 57 19" fill="none" xmlns="http://www.w3.org/2000/svg">
<path d="M9.16 2.91C9.1 3.01 9.03333 3.08667 8.96 3.14C8.89333 3.18667 8.81 3.21 8.71 3.21C8.59667 3.21 8.46333 3.15333 8.31 3.04C8.15667 2.92667 7.96333 2.80333 7.73 2.67C7.50333 2.53 7.22667 2.40333 6.9 2.29C6.58 2.17667 6.19 2.12 5.73 2.12C5.29667 2.12 4.91333 2.18 4.58 2.3C4.25333 2.41333 3.97667 2.57 3.75 2.77C3.53 2.97 3.36333 3.20667 3.25 3.48C3.13667 3.74667 3.08 4.03667 3.08 4.35C3.08 4.75 3.17667 5.08333 3.37 5.35C3.57 5.61 3.83 5.83333 4.15 6.02C4.47667 6.20667 4.84333 6.37 5.25 6.51C5.66333 6.64333 6.08333 6.78333 6.51 6.93C6.94333 7.07667 7.36333 7.24333 7.77 7.43C8.18333 7.61 8.55 7.84 8.87 8.12C9.19667 8.4 9.45667 8.74333 9.65 9.15C9.85 9.55667 9.95 10.0567 9.95 10.65C9.95 11.2767 9.84333 11.8667 9.63 12.42C9.41667 12.9667 9.10333 13.4433 8.69 13.85C8.28333 14.2567 7.78 14.5767 7.18 14.81C6.58667 15.0433 5.91 15.16 5.15 15.16C4.21667 15.16 3.37 14.9933 2.61 14.66C1.85 14.32 1.2 13.8633 0.66 13.29L1.22 12.37C1.27333 12.2967 1.33667 12.2367 1.41 12.19C1.49 12.1367 1.57667 12.11 1.67 12.11C1.75667 12.11 1.85333 12.1467 1.96 12.22C2.07333 12.2867 2.2 12.3733 2.34 12.48C2.48 12.5867 2.64 12.7033 2.82 12.83C3 12.9567 3.20333 13.0733 3.43 13.18C3.66333 13.2867 3.92667 13.3767 4.22 13.45C4.51333 13.5167 4.84333 13.55 5.21 13.55C5.67 13.55 6.08 13.4867 6.44 13.36C6.8 13.2333 7.10333 13.0567 7.35 12.83C7.60333 12.5967 7.79667 12.32 7.93 12C8.06333 11.68 8.13 11.3233 8.13 10.93C8.13 10.4967 8.03 10.1433 7.83 9.87C7.63667 9.59 7.38 9.35667 7.06 9.17C6.74 8.98333 6.37333 8.82667 5.96 8.7C5.54667 8.56667 5.12667 8.43333 4.7 8.3C4.27333 8.16 3.85333 8 3.44 7.82C3.02667 7.64 2.66 7.40667 2.34 7.12C2.02 6.83333 1.76 6.47667 1.56 6.05C1.36667 5.61667 1.27 5.08333 1.27 4.45C1.27 3.94333 1.36667 3.45333 1.56 2.98C1.76 2.50667 2.04667 2.08667 2.42 1.72C2.8 1.35333 3.26333 1.06 3.81 0.84C4.36333 0.619999 4.99667 0.509999 5.71 0.509999C6.51 0.509999 7.23667 0.636666 7.89 0.89C8.55 1.14333 9.13 1.51 9.63 1.99L9.16 2.91ZM14.0517 4.87V15H12.2717V4.87H14.0517ZM14.4317 1.69C14.4317 1.86333 14.3951 2.02667 14.3217 2.18C14.2551 2.32667 14.1617 2.46 14.0417 2.58C13.9284 2.69333 13.7917 2.78333 13.6317 2.85C13.4784 2.91667 13.3151 2.95 13.1417 2.95C12.9684 2.95 12.8051 2.91667 12.6517 2.85C12.5051 2.78333 12.3751 2.69333 12.2617 2.58C12.1484 2.46 12.0584 2.32667 11.9917 2.18C11.9251 2.02667 11.8917 1.86333 11.8917 1.69C11.8917 1.51667 11.9251 1.35333 11.9917 1.2C12.0584 1.04 12.1484 0.903333 12.2617 0.789999C12.3751 0.67 12.5051 0.576666 12.6517 0.509999C12.8051 0.443332 12.9684 0.409999 13.1417 0.409999C13.3151 0.409999 13.4784 0.443332 13.6317 0.509999C13.7917 0.576666 13.9284 0.67 14.0417 0.789999C14.1617 0.903333 14.2551 1.04 14.3217 1.2C14.3951 1.35333 14.4317 1.51667 14.4317 1.69ZM20.5064 10.05C20.8664 10.05 21.1831 10 21.4564 9.9C21.7297 9.8 21.9597 9.66 22.1464 9.48C22.3331 9.3 22.4731 9.08667 22.5664 8.84C22.6597 8.58667 22.7064 8.31 22.7064 8.01C22.7064 7.39 22.5164 6.89667 22.1364 6.53C21.7631 6.16333 21.2197 5.98 20.5064 5.98C19.7864 5.98 19.2364 6.16333 18.8564 6.53C18.4831 6.89667 18.2964 7.39 18.2964 8.01C18.2964 8.31 18.3431 8.58667 18.4364 8.84C18.5364 9.08667 18.6797 9.3 18.8664 9.48C19.0531 9.66 19.2831 9.8 19.5564 9.9C19.8297 10 20.1464 10.05 20.5064 10.05ZM23.7164 15.55C23.7164 15.3033 23.6464 15.1033 23.5064 14.95C23.3664 14.7967 23.1764 14.6767 22.9364 14.59C22.7031 14.5033 22.4297 14.4433 22.1164 14.41C21.8031 14.37 21.4697 14.34 21.1164 14.32C20.7697 14.3 20.4164 14.28 20.0564 14.26C19.6964 14.24 19.3497 14.2067 19.0164 14.16C18.6431 14.3333 18.3364 14.5533 18.0964 14.82C17.8631 15.08 17.7464 15.3867 17.7464 15.74C17.7464 15.9667 17.8031 16.1767 17.9164 16.37C18.0364 16.57 18.2164 16.74 18.4564 16.88C18.6964 17.0267 18.9964 17.14 19.3564 17.22C19.7231 17.3067 20.1531 17.35 20.6464 17.35C21.1264 17.35 21.5564 17.3067 21.9364 17.22C22.3164 17.1333 22.6364 17.01 22.8964 16.85C23.1631 16.69 23.3664 16.5 23.5064 16.28C23.6464 16.06 23.7164 15.8167 23.7164 15.55ZM25.5264 5.27V5.93C25.5264 6.15 25.3864 6.29 25.1064 6.35L23.9564 6.5C24.1831 6.94 24.2964 7.42667 24.2964 7.96C24.2964 8.45333 24.1997 8.90333 24.0064 9.31C23.8197 9.71 23.5597 10.0533 23.2264 10.34C22.8931 10.6267 22.4931 10.8467 22.0264 11C21.5597 11.1533 21.0531 11.23 20.5064 11.23C20.0331 11.23 19.5864 11.1733 19.1664 11.06C18.9531 11.1933 18.7897 11.3367 18.6764 11.49C18.5631 11.6367 18.5064 11.7867 18.5064 11.94C18.5064 12.18 18.6031 12.3633 18.7964 12.49C18.9964 12.61 19.2564 12.6967 19.5764 12.75C19.8964 12.8033 20.2597 12.8367 20.6664 12.85C21.0797 12.8633 21.4997 12.8867 21.9264 12.92C22.3597 12.9467 22.7797 12.9967 23.1864 13.07C23.5997 13.1433 23.9664 13.2633 24.2864 13.43C24.6064 13.5967 24.8631 13.8267 25.0564 14.12C25.2564 14.4133 25.3564 14.7933 25.3564 15.26C25.3564 15.6933 25.2464 16.1133 25.0264 16.52C24.8131 16.9267 24.5031 17.2867 24.0964 17.6C23.6897 17.92 23.1897 18.1733 22.5964 18.36C22.0097 18.5533 21.3464 18.65 20.6064 18.65C19.8664 18.65 19.2197 18.5767 18.6664 18.43C18.1131 18.2833 17.6531 18.0867 17.2864 17.84C16.9197 17.5933 16.6431 17.3067 16.4564 16.98C16.2764 16.66 16.1864 16.3233 16.1864 15.97C16.1864 15.47 16.3431 15.0467 16.6564 14.7C16.9697 14.3533 17.3997 14.0767 17.9464 13.87C17.6464 13.7367 17.4064 13.56 17.2264 13.34C17.0531 13.1133 16.9664 12.81 16.9664 12.43C16.9664 12.2833 16.9931 12.1333 17.0464 11.98C17.0997 11.82 17.1797 11.6633 17.2864 11.51C17.3997 11.35 17.5364 11.2 17.6964 11.06C17.8564 10.92 18.0431 10.7967 18.2564 10.69C17.7564 10.41 17.3664 10.04 17.0864 9.58C16.8064 9.11333 16.6664 8.57333 16.6664 7.96C16.6664 7.46667 16.7597 7.02 16.9464 6.62C17.1397 6.21333 17.4064 5.87 17.7464 5.59C18.0864 5.30333 18.4897 5.08333 18.9564 4.93C19.4297 4.77667 19.9464 4.7 20.5064 4.7C20.9464 4.7 21.3564 4.75 21.7364 4.85C22.1164 4.94333 22.4631 5.08333 22.7764 5.27H25.5264ZM29.047 6.34C29.267 6.09333 29.5004 5.87 29.747 5.67C29.9937 5.47 30.2537 5.3 30.527 5.16C30.807 5.01333 31.1004 4.90333 31.407 4.83C31.7204 4.75 32.057 4.71 32.417 4.71C32.9704 4.71 33.457 4.80333 33.877 4.99C34.3037 5.17 34.657 5.43 34.937 5.77C35.2237 6.10333 35.4404 6.50667 35.587 6.98C35.7337 7.45333 35.807 7.97667 35.807 8.55V15H34.017V8.55C34.017 7.78333 33.8404 7.19 33.487 6.77C33.1404 6.34333 32.6104 6.13 31.897 6.13C31.3704 6.13 30.877 6.25667 30.417 6.51C29.9637 6.76333 29.5437 7.10667 29.157 7.54V15H27.367V4.87H28.437C28.6904 4.87 28.847 4.99333 28.907 5.24L29.047 6.34ZM45.5166 4.87V15H43.7366V4.87H45.5166ZM45.8966 1.69C45.8966 1.86333 45.8599 2.02667 45.7866 2.18C45.7199 2.32667 45.6266 2.46 45.5066 2.58C45.3932 2.69333 45.2566 2.78333 45.0966 2.85C44.9432 2.91667 44.7799 2.95 44.6066 2.95C44.4332 2.95 44.2699 2.91667 44.1166 2.85C43.9699 2.78333 43.8399 2.69333 43.7266 2.58C43.6132 2.46 43.5232 2.32667 43.4566 2.18C43.3899 2.02667 43.3566 1.86333 43.3566 1.69C43.3566 1.51667 43.3899 1.35333 43.4566 1.2C43.5232 1.04 43.6132 0.903333 43.7266 0.789999C43.8399 0.67 43.9699 0.576666 44.1166 0.509999C44.2699 0.443332 44.4332 0.409999 44.6066 0.409999C44.7799 0.409999 44.9432 0.443332 45.0966 0.509999C45.2566 0.576666 45.3932 0.67 45.5066 0.789999C45.6266 0.903333 45.7199 1.04 45.7866 1.2C45.8599 1.35333 45.8966 1.51667 45.8966 1.69ZM50.1213 6.34C50.3413 6.09333 50.5746 5.87 50.8213 5.67C51.0679 5.47 51.3279 5.3 51.6013 5.16C51.8813 5.01333 52.1746 4.90333 52.4813 4.83C52.7946 4.75 53.1313 4.71 53.4913 4.71C54.0446 4.71 54.5313 4.80333 54.9513 4.99C55.3779 5.17 55.7313 5.43 56.0113 5.77C56.2979 6.10333 56.5146 6.50667 56.6613 6.98C56.8079 7.45333 56.8813 7.97667 56.8813 8.55V15H55.0913V8.55C55.0913 7.78333 54.9146 7.19 54.5613 6.77C54.2146 6.34333 53.6846 6.13 52.9713 6.13C52.4446 6.13 51.9513 6.25667 51.4913 6.51C51.0379 6.76333 50.6179 7.10667 50.2313 7.54V15H48.4413V4.87H49.5113C49.7646 4.87 49.9213 4.99333 49.9813 5.24L50.1213 6.34Z" fill="black"/>
</svg>
