<svg width="103" height="20" viewBox="0 0 103 20" fill="none" xmlns="http://www.w3.org/2000/svg">
<path d="M11.55 4.075C11.4583 4.225 11.3625 4.3375 11.2625 4.4125C11.1625 4.47917 11.0375 4.5125 10.8875 4.5125C10.7292 4.5125 10.55 4.44583 10.35 4.3125C10.1583 4.17917 9.91667 4.03333 9.625 3.875C9.34167 3.70833 9.00417 3.55833 8.6125 3.425C8.22083 3.28333 7.75417 3.2125 7.2125 3.2125C6.7125 3.2125 6.27083 3.275 5.8875 3.4C5.5125 3.525 5.19583 3.7 4.9375 3.925C4.67917 4.15 4.48333 4.41667 4.35 4.725C4.225 5.025 4.1625 5.35417 4.1625 5.7125C4.1625 6.17083 4.28333 6.55417 4.525 6.8625C4.76667 7.1625 5.08333 7.42083 5.475 7.6375C5.875 7.85417 6.32917 8.04583 6.8375 8.2125C7.34583 8.37083 7.8625 8.54167 8.3875 8.725C8.92083 8.90833 9.44167 9.11667 9.95 9.35C10.4583 9.58333 10.9083 9.87917 11.3 10.2375C11.7 10.5958 12.0208 11.0333 12.2625 11.55C12.5042 12.0667 12.625 12.6958 12.625 13.4375C12.625 14.2375 12.4875 14.9875 12.2125 15.6875C11.9375 16.3875 11.5375 17 11.0125 17.525C10.4958 18.0417 9.85417 18.45 9.0875 18.75C8.32917 19.05 7.4625 19.2 6.4875 19.2C5.9125 19.2 5.35 19.1417 4.8 19.025C4.25833 18.9167 3.7375 18.7625 3.2375 18.5625C2.74583 18.3542 2.28333 18.1042 1.85 17.8125C1.41667 17.5208 1.02917 17.1958 0.6875 16.8375L1.5375 15.4375C1.6125 15.3208 1.70833 15.2292 1.825 15.1625C1.94167 15.0958 2.07083 15.0625 2.2125 15.0625C2.40417 15.0625 2.61667 15.1542 2.85 15.3375C3.08333 15.5125 3.3625 15.7083 3.6875 15.925C4.02083 16.1333 4.42083 16.3292 4.8875 16.5125C5.35417 16.6875 5.9125 16.775 6.5625 16.775C7.62083 16.775 8.4375 16.5167 9.0125 16C9.59583 15.4833 9.8875 14.7708 9.8875 13.8625C9.8875 13.3542 9.76667 12.9417 9.525 12.625C9.28333 12.3 8.9625 12.0292 8.5625 11.8125C8.17083 11.5958 7.72083 11.4125 7.2125 11.2625C6.70417 11.1125 6.1875 10.9542 5.6625 10.7875C5.1375 10.6125 4.62083 10.4125 4.1125 10.1875C3.60417 9.95417 3.15 9.65417 2.75 9.2875C2.35833 8.9125 2.04167 8.45417 1.8 7.9125C1.55833 7.3625 1.4375 6.67917 1.4375 5.8625C1.4375 5.2125 1.5625 4.58333 1.8125 3.975C2.07083 3.36667 2.44167 2.82917 2.925 2.3625C3.41667 1.8875 4.02083 1.50833 4.7375 1.225C5.45417 0.941666 6.27083 0.799999 7.1875 0.799999C8.22083 0.799999 9.16667 0.962499 10.025 1.2875C10.8917 1.6125 11.6375 2.075 12.2625 2.675L11.55 4.075ZM20.7486 6.05C21.6903 6.05 22.5403 6.20417 23.2986 6.5125C24.0653 6.82083 24.7153 7.25833 25.2486 7.825C25.7903 8.39167 26.207 9.07917 26.4986 9.8875C26.7903 10.6958 26.9361 11.6042 26.9361 12.6125C26.9361 13.6208 26.7903 14.5292 26.4986 15.3375C26.207 16.1458 25.7903 16.8375 25.2486 17.4125C24.7153 17.9792 24.0653 18.4167 23.2986 18.725C22.5403 19.0333 21.6903 19.1875 20.7486 19.1875C19.7986 19.1875 18.9403 19.0333 18.1736 18.725C17.4153 18.4167 16.7653 17.9792 16.2236 17.4125C15.682 16.8375 15.2653 16.1458 14.9736 15.3375C14.682 14.5292 14.5361 13.6208 14.5361 12.6125C14.5361 11.6042 14.682 10.6958 14.9736 9.8875C15.2653 9.07917 15.682 8.39167 16.2236 7.825C16.7653 7.25833 17.4153 6.82083 18.1736 6.5125C18.9403 6.20417 19.7986 6.05 20.7486 6.05ZM20.7486 17.0875C21.8986 17.0875 22.7528 16.7042 23.3111 15.9375C23.8778 15.1625 24.1611 14.0583 24.1611 12.625C24.1611 11.1917 23.8778 10.0875 23.3111 9.3125C22.7528 8.52917 21.8986 8.1375 20.7486 8.1375C19.582 8.1375 18.7153 8.52917 18.1486 9.3125C17.582 10.0875 17.2986 11.1917 17.2986 12.625C17.2986 14.0583 17.582 15.1625 18.1486 15.9375C18.7153 16.7042 19.582 17.0875 20.7486 17.0875ZM32.2559 0.5V19H29.5684V0.5H32.2559ZM46.323 6.25V19H44.698C44.3397 19 44.1105 18.8292 44.0105 18.4875L43.8105 17.3C43.5439 17.5833 43.2605 17.8417 42.9605 18.075C42.6689 18.3083 42.3564 18.5083 42.023 18.675C41.6897 18.8417 41.3314 18.9708 40.948 19.0625C40.573 19.1542 40.1689 19.2 39.7355 19.2C39.0355 19.2 38.4189 19.0833 37.8855 18.85C37.3522 18.6167 36.9022 18.2875 36.5355 17.8625C36.1772 17.4375 35.9064 16.9292 35.723 16.3375C35.5397 15.7375 35.448 15.0792 35.448 14.3625V6.25H38.1355V14.3625C38.1355 15.2208 38.3314 15.8875 38.723 16.3625C39.123 16.8375 39.7272 17.075 40.5355 17.075C41.1272 17.075 41.6772 16.9417 42.1855 16.675C42.7022 16.4 43.1855 16.025 43.6355 15.55V6.25H46.323ZM61.9617 19H59.2742V8.3625H53.0617V15.6C53.0617 16.0583 53.1742 16.4083 53.3992 16.65C53.6242 16.8917 53.9242 17.0125 54.2992 17.0125C54.5076 17.0125 54.6867 16.9875 54.8367 16.9375C54.9867 16.8792 55.1159 16.8208 55.2242 16.7625C55.3326 16.6958 55.4242 16.6375 55.4992 16.5875C55.5826 16.5292 55.6617 16.5 55.7367 16.5C55.8867 16.5 56.0076 16.5833 56.0992 16.75L56.8992 18.0625C56.4826 18.4292 55.9909 18.7125 55.4242 18.9125C54.8576 19.1042 54.2742 19.2 53.6742 19.2C52.6159 19.2 51.7992 18.9042 51.2242 18.3125C50.6576 17.7125 50.3742 16.8708 50.3742 15.7875V8.3625H48.9742C48.8242 8.3625 48.6951 8.31667 48.5867 8.225C48.4784 8.125 48.4242 7.97917 48.4242 7.7875V6.7L50.4867 6.4L51.0742 2.7125C51.1159 2.57083 51.1867 2.45833 51.2867 2.375C51.3867 2.28333 51.5201 2.2375 51.6867 2.2375H53.0617V6.425H61.9617V19ZM62.5117 2.3375C62.5117 2.57917 62.4617 2.80833 62.3617 3.025C62.2701 3.23333 62.1409 3.42083 61.9742 3.5875C61.8076 3.74583 61.6117 3.875 61.3867 3.975C61.1701 4.06667 60.9409 4.1125 60.6992 4.1125C60.4576 4.1125 60.2284 4.06667 60.0117 3.975C59.8034 3.875 59.6159 3.74583 59.4492 3.5875C59.2909 3.42083 59.1617 3.23333 59.0617 3.025C58.9701 2.80833 58.9242 2.57917 58.9242 2.3375C58.9242 2.0875 58.9701 1.85417 59.0617 1.6375C59.1617 1.4125 59.2909 1.22083 59.4492 1.0625C59.6159 0.895833 59.8034 0.766666 60.0117 0.674999C60.2284 0.574999 60.4576 0.524999 60.6992 0.524999C60.9409 0.524999 61.1701 0.574999 61.3867 0.674999C61.6117 0.766666 61.8076 0.895833 61.9742 1.0625C62.1409 1.22083 62.2701 1.4125 62.3617 1.6375C62.4617 1.85417 62.5117 2.0875 62.5117 2.3375ZM70.8707 6.05C71.8124 6.05 72.6624 6.20417 73.4207 6.5125C74.1874 6.82083 74.8374 7.25833 75.3707 7.825C75.9124 8.39167 76.329 9.07917 76.6207 9.8875C76.9124 10.6958 77.0582 11.6042 77.0582 12.6125C77.0582 13.6208 76.9124 14.5292 76.6207 15.3375C76.329 16.1458 75.9124 16.8375 75.3707 17.4125C74.8374 17.9792 74.1874 18.4167 73.4207 18.725C72.6624 19.0333 71.8124 19.1875 70.8707 19.1875C69.9207 19.1875 69.0624 19.0333 68.2957 18.725C67.5374 18.4167 66.8874 17.9792 66.3457 17.4125C65.804 16.8375 65.3874 16.1458 65.0957 15.3375C64.804 14.5292 64.6582 13.6208 64.6582 12.6125C64.6582 11.6042 64.804 10.6958 65.0957 9.8875C65.3874 9.07917 65.804 8.39167 66.3457 7.825C66.8874 7.25833 67.5374 6.82083 68.2957 6.5125C69.0624 6.20417 69.9207 6.05 70.8707 6.05ZM70.8707 17.0875C72.0207 17.0875 72.8749 16.7042 73.4332 15.9375C73.9999 15.1625 74.2832 14.0583 74.2832 12.625C74.2832 11.1917 73.9999 10.0875 73.4332 9.3125C72.8749 8.52917 72.0207 8.1375 70.8707 8.1375C69.704 8.1375 68.8374 8.52917 68.2707 9.3125C67.704 10.0875 67.4207 11.1917 67.4207 12.625C67.4207 14.0583 67.704 15.1625 68.2707 15.9375C68.8374 16.7042 69.704 17.0875 70.8707 17.0875ZM82.1529 7.9375C82.4279 7.65417 82.7113 7.4 83.0029 7.175C83.3029 6.94167 83.6196 6.74167 83.9529 6.575C84.2863 6.40833 84.6404 6.27917 85.0154 6.1875C85.3904 6.09583 85.7988 6.05 86.2404 6.05C86.9404 6.05 87.5529 6.16667 88.0779 6.4C88.6113 6.63333 89.0571 6.9625 89.4154 7.3875C89.7821 7.8125 90.0571 8.325 90.2404 8.925C90.4238 9.51667 90.5154 10.1708 90.5154 10.8875V19H87.8404V10.8875C87.8404 10.0292 87.6404 9.3625 87.2404 8.8875C86.8488 8.4125 86.2488 8.175 85.4404 8.175C84.8404 8.175 84.2821 8.3125 83.7654 8.5875C83.2571 8.8625 82.7779 9.2375 82.3279 9.7125V19H79.6404V6.25H81.2654C81.6321 6.25 81.8654 6.42083 81.9654 6.7625L82.1529 7.9375ZM101.267 8.5625C101.2 8.67917 101.125 8.7625 101.042 8.8125C100.958 8.8625 100.854 8.8875 100.729 8.8875C100.587 8.8875 100.433 8.84583 100.267 8.7625C100.1 8.67083 99.9041 8.57083 99.6791 8.4625C99.4541 8.35417 99.1874 8.25833 98.8791 8.175C98.5791 8.08333 98.2249 8.0375 97.8166 8.0375C97.4833 8.0375 97.1791 8.07917 96.9041 8.1625C96.6374 8.2375 96.4083 8.35 96.2166 8.5C96.0333 8.64167 95.8916 8.8125 95.7916 9.0125C95.6916 9.20417 95.6416 9.4125 95.6416 9.6375C95.6416 9.9375 95.7333 10.1875 95.9166 10.3875C96.0999 10.5875 96.3416 10.7625 96.6416 10.9125C96.9416 11.0542 97.2833 11.1833 97.6666 11.3C98.0499 11.4167 98.4416 11.5417 98.8416 11.675C99.2416 11.8083 99.6333 11.9625 100.017 12.1375C100.4 12.3125 100.742 12.5292 101.042 12.7875C101.342 13.0375 101.583 13.3458 101.767 13.7125C101.95 14.0708 102.042 14.5083 102.042 15.025C102.042 15.625 101.933 16.1792 101.717 16.6875C101.5 17.1958 101.183 17.6375 100.767 18.0125C100.35 18.3875 99.8291 18.6792 99.2041 18.8875C98.5874 19.0958 97.8791 19.2 97.0791 19.2C96.6374 19.2 96.2083 19.1583 95.7916 19.075C95.3833 19 94.9916 18.8958 94.6166 18.7625C94.2499 18.6208 93.9041 18.4542 93.5791 18.2625C93.2624 18.0708 92.9791 17.8625 92.7291 17.6375L93.3541 16.6125C93.4291 16.4875 93.5208 16.3917 93.6291 16.325C93.7458 16.25 93.8874 16.2125 94.0541 16.2125C94.2291 16.2125 94.3999 16.2708 94.5666 16.3875C94.7416 16.4958 94.9416 16.6167 95.1666 16.75C95.3999 16.8833 95.6791 17.0083 96.0041 17.125C96.3291 17.2333 96.7333 17.2875 97.2166 17.2875C97.6166 17.2875 97.9624 17.2417 98.2541 17.15C98.5458 17.05 98.7874 16.9167 98.9791 16.75C99.1708 16.5833 99.3124 16.3958 99.4041 16.1875C99.4958 15.9708 99.5416 15.7417 99.5416 15.5C99.5416 15.175 99.4499 14.9083 99.2666 14.7C99.0833 14.4917 98.8374 14.3125 98.5291 14.1625C98.2291 14.0125 97.8833 13.8792 97.4916 13.7625C97.1083 13.6458 96.7166 13.5208 96.3166 13.3875C95.9166 13.2542 95.5208 13.1 95.1291 12.925C94.7458 12.75 94.3999 12.5292 94.0916 12.2625C93.7916 11.9875 93.5499 11.6583 93.3666 11.275C93.1833 10.8833 93.0916 10.4083 93.0916 9.85C93.0916 9.34167 93.1916 8.85833 93.3916 8.4C93.5999 7.94167 93.8999 7.5375 94.2916 7.1875C94.6916 6.8375 95.1791 6.5625 95.7541 6.3625C96.3374 6.15417 97.0083 6.05 97.7666 6.05C98.6249 6.05 99.4041 6.1875 100.104 6.4625C100.804 6.7375 101.392 7.1125 101.867 7.5875L101.267 8.5625Z" fill="white"/>
</svg>
