<svg width="120" height="24" viewBox="0 0 120 24" fill="none" xmlns="http://www.w3.org/2000/svg">
<path d="M25.8 0.999999L20.2 19H17.5625L13.3375 6.075C13.2875 5.93333 13.2375 5.77917 13.1875 5.6125C13.1458 5.44583 13.1042 5.26667 13.0625 5.075C13.0208 5.26667 12.975 5.44583 12.925 5.6125C12.8833 5.77917 12.8375 5.93333 12.7875 6.075L8.525 19H5.8875L0.2875 0.999999H2.7375C2.9875 0.999999 3.19583 1.0625 3.3625 1.1875C3.5375 1.30417 3.65417 1.46667 3.7125 1.675L7.0875 13.2125C7.15417 13.4625 7.21667 13.7333 7.275 14.025C7.33333 14.3167 7.39167 14.6208 7.45 14.9375C7.50833 14.6208 7.57083 14.3167 7.6375 14.025C7.7125 13.725 7.79167 13.4542 7.875 13.2125L11.7375 1.675C11.7958 1.50833 11.9125 1.35417 12.0875 1.2125C12.2625 1.07083 12.4708 0.999999 12.7125 0.999999H13.5625C13.8208 0.999999 14.0292 1.06667 14.1875 1.2C14.3458 1.325 14.4667 1.48333 14.55 1.675L18.4 13.2125C18.4833 13.4542 18.5583 13.7167 18.625 14C18.7 14.275 18.7667 14.5667 18.825 14.875C18.8833 14.5667 18.9375 14.275 18.9875 14C19.0458 13.7167 19.1083 13.4542 19.175 13.2125L22.5375 1.675C22.5875 1.49167 22.7 1.33333 22.875 1.2C23.0583 1.06667 23.2708 0.999999 23.5125 0.999999H25.8ZM30.2527 7.7625C30.7777 7.24583 31.3527 6.83333 31.9777 6.525C32.6027 6.20833 33.3319 6.05 34.1652 6.05C34.8652 6.05 35.4777 6.16667 36.0027 6.4C36.5361 6.63333 36.9819 6.9625 37.3402 7.3875C37.7069 7.8125 37.9819 8.325 38.1652 8.925C38.3486 9.51667 38.4402 10.1708 38.4402 10.8875V19H35.7652V10.8875C35.7652 10.0292 35.5652 9.3625 35.1652 8.8875C34.7736 8.4125 34.1736 8.175 33.3652 8.175C32.7652 8.175 32.2069 8.3125 31.6902 8.5875C31.1819 8.8625 30.7027 9.2375 30.2527 9.7125V19H27.5652V0.5H30.2527V7.7625ZM52.574 6.25L45.549 22.625C45.4574 22.8167 45.3449 22.9667 45.2115 23.075C45.0865 23.1833 44.8907 23.2375 44.624 23.2375H42.6365L44.9865 18.1375L39.7865 6.25H42.124C42.349 6.25 42.5199 6.30417 42.6365 6.4125C42.7615 6.5125 42.8532 6.63333 42.9115 6.775L45.949 14.0125C46.024 14.2208 46.0907 14.4292 46.149 14.6375C46.2157 14.8375 46.2782 15.0458 46.3365 15.2625C46.4032 15.0458 46.4699 14.8333 46.5365 14.625C46.6032 14.4167 46.6782 14.2083 46.7615 14L49.674 6.775C49.7324 6.625 49.8282 6.5 49.9615 6.4C50.1032 6.3 50.2574 6.25 50.424 6.25H52.574ZM69.1332 12.25L66.6582 5.675C66.4582 5.16667 66.254 4.52083 66.0457 3.7375C65.954 4.12917 65.854 4.49167 65.7457 4.825C65.6374 5.15 65.5374 5.4375 65.4457 5.6875L62.9707 12.25H69.1332ZM74.6707 19H72.4082C72.1499 19 71.9415 18.9375 71.7832 18.8125C71.6249 18.6792 71.504 18.5167 71.4207 18.325L69.9207 14.35H62.1707L60.6707 18.325C60.604 18.4917 60.4874 18.6458 60.3207 18.7875C60.154 18.9292 59.9457 19 59.6957 19H57.4332L64.5707 0.999999H67.5332L74.6707 19ZM78.96 0.5V19H76.2725V0.5H78.96ZM85.0771 6.25V19H82.3896V6.25H85.0771ZM85.5271 2.4C85.5271 2.64167 85.4771 2.87083 85.3771 3.0875C85.2855 3.30417 85.1563 3.49583 84.9896 3.6625C84.823 3.82083 84.6271 3.95 84.4021 4.05C84.1855 4.14167 83.9521 4.1875 83.7021 4.1875C83.4605 4.1875 83.2313 4.14167 83.0146 4.05C82.8063 3.95 82.623 3.82083 82.4646 3.6625C82.3063 3.49583 82.1771 3.30417 82.0771 3.0875C81.9855 2.87083 81.9396 2.64167 81.9396 2.4C81.9396 2.15 81.9855 1.91667 82.0771 1.7C82.1771 1.48333 82.3063 1.29583 82.4646 1.1375C82.623 0.970832 82.8063 0.841666 83.0146 0.75C83.2313 0.649999 83.4605 0.599998 83.7021 0.599998C83.9521 0.599998 84.1855 0.649999 84.4021 0.75C84.6271 0.841666 84.823 0.970832 84.9896 1.1375C85.1563 1.29583 85.2855 1.48333 85.3771 1.7C85.4771 1.91667 85.5271 2.15 85.5271 2.4ZM99.6789 6.25L94.5539 19H92.1289L87.0039 6.25H89.2164C89.4247 6.25 89.5956 6.30417 89.7289 6.4125C89.8706 6.5125 89.9622 6.63333 90.0039 6.775L92.8289 14.2C92.9456 14.55 93.0497 14.8958 93.1414 15.2375C93.2331 15.5792 93.3122 15.925 93.3789 16.275C93.4456 15.925 93.5247 15.5833 93.6164 15.25C93.7164 14.9083 93.8247 14.5583 93.9414 14.2L96.8164 6.775C96.8664 6.625 96.9581 6.5 97.0914 6.4C97.2247 6.3 97.3872 6.25 97.5789 6.25H99.6789ZM104.315 6.25V19H101.628V6.25H104.315ZM104.765 2.4C104.765 2.64167 104.715 2.87083 104.615 3.0875C104.524 3.30417 104.395 3.49583 104.228 3.6625C104.061 3.82083 103.865 3.95 103.64 4.05C103.424 4.14167 103.19 4.1875 102.94 4.1875C102.699 4.1875 102.47 4.14167 102.253 4.05C102.045 3.95 101.861 3.82083 101.703 3.6625C101.545 3.49583 101.415 3.30417 101.315 3.0875C101.224 2.87083 101.178 2.64167 101.178 2.4C101.178 2.15 101.224 1.91667 101.315 1.7C101.415 1.48333 101.545 1.29583 101.703 1.1375C101.861 0.970832 102.045 0.841666 102.253 0.75C102.47 0.649999 102.699 0.599998 102.94 0.599998C103.19 0.599998 103.424 0.649999 103.64 0.75C103.865 0.841666 104.061 0.970832 104.228 1.1375C104.395 1.29583 104.524 1.48333 104.615 1.7C104.715 1.91667 104.765 2.15 104.765 2.4ZM113.205 6.05C114.146 6.05 114.996 6.20417 115.755 6.5125C116.521 6.82083 117.171 7.25833 117.705 7.825C118.246 8.39167 118.663 9.07917 118.955 9.8875C119.246 10.6958 119.392 11.6042 119.392 12.6125C119.392 13.6208 119.246 14.5292 118.955 15.3375C118.663 16.1458 118.246 16.8375 117.705 17.4125C117.171 17.9792 116.521 18.4167 115.755 18.725C114.996 19.0333 114.146 19.1875 113.205 19.1875C112.255 19.1875 111.396 19.0333 110.63 18.725C109.871 18.4167 109.221 17.9792 108.68 17.4125C108.138 16.8375 107.721 16.1458 107.43 15.3375C107.138 14.5292 106.992 13.6208 106.992 12.6125C106.992 11.6042 107.138 10.6958 107.43 9.8875C107.721 9.07917 108.138 8.39167 108.68 7.825C109.221 7.25833 109.871 6.82083 110.63 6.5125C111.396 6.20417 112.255 6.05 113.205 6.05ZM113.205 17.0875C114.355 17.0875 115.209 16.7042 115.767 15.9375C116.334 15.1625 116.617 14.0583 116.617 12.625C116.617 11.1917 116.334 10.0875 115.767 9.3125C115.209 8.52917 114.355 8.1375 113.205 8.1375C112.038 8.1375 111.171 8.52917 110.605 9.3125C110.038 10.0875 109.755 11.1917 109.755 12.625C109.755 14.0583 110.038 15.1625 110.605 15.9375C111.171 16.7042 112.038 17.0875 113.205 17.0875Z" fill="white"/>
</svg>
